<mxfile host="app.diagrams.net" agent="Mozilla/5.0 (Windows NT 10.0; Win64; x64) AppleWebKit/537.36 (KHTML, like Gecko) Chrome/129.0.0.0 Safari/537.36" version="24.7.17">
  <diagram name="Pagina-1" id="1W5L0b2t8rQtKR0dZAmD">
    <mxGraphModel dx="1434" dy="738" grid="1" gridSize="10" guides="1" tooltips="1" connect="1" arrows="1" fold="1" page="1" pageScale="1" pageWidth="827" pageHeight="1169" math="0" shadow="0">
      <root>
        <mxCell id="0" />
        <mxCell id="1" parent="0" />
        <mxCell id="FI9Jx3ovwm6Ssb1e2RYQ-1" value="identificazione&amp;nbsp;&lt;div&gt;delle attività&lt;/div&gt;" style="text;html=1;align=center;verticalAlign=middle;whiteSpace=wrap;rounded=0;fillColor=#dae8fc;strokeColor=#6c8ebf;" vertex="1" parent="1">
          <mxGeometry x="45" y="60" width="100" height="40" as="geometry" />
        </mxCell>
        <mxCell id="FI9Jx3ovwm6Ssb1e2RYQ-2" value="identificazione&amp;nbsp;&lt;div&gt;delle dipendenze&lt;/div&gt;" style="text;html=1;align=center;verticalAlign=middle;whiteSpace=wrap;rounded=0;fillColor=#dae8fc;strokeColor=#6c8ebf;" vertex="1" parent="1">
          <mxGeometry x="185" y="60" width="100" height="40" as="geometry" />
        </mxCell>
        <mxCell id="FI9Jx3ovwm6Ssb1e2RYQ-3" value="" style="endArrow=classic;html=1;rounded=0;exitX=1;exitY=0.5;exitDx=0;exitDy=0;entryX=0;entryY=0.5;entryDx=0;entryDy=0;" edge="1" parent="1" source="FI9Jx3ovwm6Ssb1e2RYQ-1" target="FI9Jx3ovwm6Ssb1e2RYQ-2">
          <mxGeometry width="50" height="50" relative="1" as="geometry">
            <mxPoint x="165" y="40" as="sourcePoint" />
            <mxPoint x="215" y="-10" as="targetPoint" />
          </mxGeometry>
        </mxCell>
        <mxCell id="FI9Jx3ovwm6Ssb1e2RYQ-4" value="stima delle risorse&amp;nbsp;&lt;div&gt;per le attività&lt;/div&gt;" style="text;html=1;align=center;verticalAlign=middle;whiteSpace=wrap;rounded=0;fillColor=#dae8fc;strokeColor=#6c8ebf;" vertex="1" parent="1">
          <mxGeometry x="325" y="55" width="100" height="50" as="geometry" />
        </mxCell>
        <mxCell id="FI9Jx3ovwm6Ssb1e2RYQ-5" value="" style="endArrow=classic;html=1;rounded=0;exitX=1;exitY=0.5;exitDx=0;exitDy=0;entryX=0;entryY=0.5;entryDx=0;entryDy=0;" edge="1" parent="1" source="FI9Jx3ovwm6Ssb1e2RYQ-2" target="FI9Jx3ovwm6Ssb1e2RYQ-4">
          <mxGeometry width="50" height="50" relative="1" as="geometry">
            <mxPoint x="345" y="120" as="sourcePoint" />
            <mxPoint x="395" y="70" as="targetPoint" />
          </mxGeometry>
        </mxCell>
        <mxCell id="FI9Jx3ovwm6Ssb1e2RYQ-6" value="allocazione del&amp;nbsp;&lt;div&gt;personale&lt;/div&gt;" style="text;html=1;align=center;verticalAlign=middle;whiteSpace=wrap;rounded=0;fillColor=#dae8fc;strokeColor=#6c8ebf;" vertex="1" parent="1">
          <mxGeometry x="465" y="60" width="100" height="40" as="geometry" />
        </mxCell>
        <mxCell id="FI9Jx3ovwm6Ssb1e2RYQ-7" value="creazione dei&amp;nbsp;&lt;div&gt;project charts&lt;/div&gt;" style="text;html=1;align=center;verticalAlign=middle;whiteSpace=wrap;rounded=0;fillColor=#dae8fc;strokeColor=#6c8ebf;" vertex="1" parent="1">
          <mxGeometry x="605" y="60" width="100" height="40" as="geometry" />
        </mxCell>
        <mxCell id="FI9Jx3ovwm6Ssb1e2RYQ-8" value="" style="endArrow=classic;html=1;rounded=0;entryX=0;entryY=0.5;entryDx=0;entryDy=0;exitX=1;exitY=0.5;exitDx=0;exitDy=0;" edge="1" parent="1" source="FI9Jx3ovwm6Ssb1e2RYQ-6" target="FI9Jx3ovwm6Ssb1e2RYQ-7">
          <mxGeometry width="50" height="50" relative="1" as="geometry">
            <mxPoint x="365" y="170" as="sourcePoint" />
            <mxPoint x="415" y="120" as="targetPoint" />
          </mxGeometry>
        </mxCell>
        <mxCell id="FI9Jx3ovwm6Ssb1e2RYQ-9" value="" style="endArrow=classic;html=1;rounded=0;entryX=0;entryY=0.5;entryDx=0;entryDy=0;exitX=1;exitY=0.5;exitDx=0;exitDy=0;" edge="1" parent="1" source="FI9Jx3ovwm6Ssb1e2RYQ-4" target="FI9Jx3ovwm6Ssb1e2RYQ-6">
          <mxGeometry width="50" height="50" relative="1" as="geometry">
            <mxPoint x="365" y="170" as="sourcePoint" />
            <mxPoint x="415" y="120" as="targetPoint" />
          </mxGeometry>
        </mxCell>
        <mxCell id="FI9Jx3ovwm6Ssb1e2RYQ-10" value="diagrammi utili nella descrizione della schedule" style="text;html=1;align=center;verticalAlign=middle;whiteSpace=wrap;rounded=0;" vertex="1" parent="1">
          <mxGeometry x="590" y="140" width="130" height="40" as="geometry" />
        </mxCell>
        <mxCell id="FI9Jx3ovwm6Ssb1e2RYQ-12" value="" style="endArrow=classic;html=1;rounded=0;exitX=0.5;exitY=1;exitDx=0;exitDy=0;" edge="1" parent="1" source="FI9Jx3ovwm6Ssb1e2RYQ-7">
          <mxGeometry width="50" height="50" relative="1" as="geometry">
            <mxPoint x="575" y="160" as="sourcePoint" />
            <mxPoint x="655" y="140" as="targetPoint" />
          </mxGeometry>
        </mxCell>
        <mxCell id="FI9Jx3ovwm6Ssb1e2RYQ-13" value="requisiti del software e informazioni strutturali" style="text;html=1;align=center;verticalAlign=middle;whiteSpace=wrap;rounded=0;" vertex="1" parent="1">
          <mxGeometry x="30" y="145" width="130" height="30" as="geometry" />
        </mxCell>
        <mxCell id="FI9Jx3ovwm6Ssb1e2RYQ-14" value="" style="endArrow=classic;html=1;rounded=0;exitX=0.5;exitY=1;exitDx=0;exitDy=0;" edge="1" parent="1">
          <mxGeometry width="50" height="50" relative="1" as="geometry">
            <mxPoint x="94.86000000000001" y="100" as="sourcePoint" />
            <mxPoint x="94.86000000000001" y="140" as="targetPoint" />
          </mxGeometry>
        </mxCell>
        <mxCell id="FI9Jx3ovwm6Ssb1e2RYQ-15" value="" style="endArrow=classic;html=1;rounded=0;exitX=1;exitY=0.5;exitDx=0;exitDy=0;entryX=0.5;entryY=0;entryDx=0;entryDy=0;" edge="1" parent="1" source="FI9Jx3ovwm6Ssb1e2RYQ-7" target="FI9Jx3ovwm6Ssb1e2RYQ-4">
          <mxGeometry width="50" height="50" relative="1" as="geometry">
            <mxPoint x="695" y="40" as="sourcePoint" />
            <mxPoint x="375" y="30" as="targetPoint" />
            <Array as="points">
              <mxPoint x="735" y="80" />
              <mxPoint x="735" y="30" />
              <mxPoint x="375" y="30" />
            </Array>
          </mxGeometry>
        </mxCell>
      </root>
    </mxGraphModel>
  </diagram>
</mxfile>
